# xmcd
#
# Track frame offsets:
#	150
#	18123
#	28962
#	48093
#	61737
#	77766
#	89358
#	102270
#	117003
#	129522
#	146115
#	160830
#	178848
#	191304
#	200754
#
# Disc length: 2803 seconds
#
# Revision: 0
# Processed by: cddbd v1.5.2PL0 Copyright (c) Steve Scherf et al.
# Submitted via: audiograbber 1.83.01
#
DISCID=c40af10f
DTITLE=Various Artist - Brazil
DYEAR=2004
DGENRE=Bossa nova
TTITLE0=Wanda sa and roberto manascal - Chega da saudade
TTITLE1=Quarteto em Cy and Chico Buarque - Carta ao tom 74
TTITLE2=Badem powell - Canto de ossanha
TTITLE3=Bia - Samba de uma nota so
TTITLE4=Joyce - Corcovado
TTITLE5=Claudia telles - Discussao
TTITLE6=Av jobim and Antonio carlos jobim - Samba do aviao
TTITLE7=Maria Bethania - Annos dourados
TTITLE8=Silvio césar and Antonio carlos jobim - Medley Jobim
TTITLE9=Joyce - Garota de ipanema
TTITLE10=Milton nascimento - Cancao do sal
TTITLE11=Bia - O barquinho
TTITLE12=Wanda sal and Roberto Menescal - So danco samba
TTITLE13=Caetano veloso - Samba em paz
TTITLE14=Quarteto en Cy - Samba de Orly
EXTD=
EXTT0=
EXTT1=
EXTT2=
EXTT3=
EXTT4=
EXTT5=
EXTT6=
EXTT7=
EXTT8=
EXTT9=
EXTT10=
EXTT11=
EXTT12=
EXTT13=
EXTT14=
PLAYORDER=
